# xmcd
#
# Track frame offsets: 
#        183
#        37683
#        76008
#        172758
#        212670
#        241720
#
# Disc length: 4006 seconds
#
# Revision: 11
# Processed by: cddbd v1.5.2PL0 Copyright (c) Steve Scherf et al.
# Submitted via: ExactAudioCopy v0.95b4
#
DISCID=310fa406
DTITLE=JSBach-La Chapelle Royale - Herreweghe - Grands Motets
DYEAR=1986
DGENRE=Choral
TTITLE0=Der Geist hilft unsrer Schwachheit auf BWV 226
TTITLE1=Fürchte dich nicht BWV 228
TTITLE2=Jesu, meine Freude BWV 227
TTITLE3=Komm, Jesu, Komm BWV 229
TTITLE4=Lobet den Herrn, alle Heiden BWV 230
TTITLE5=Singet dem Herrn ein neues Lied BWV 225
EXTD=YEAR: 1986
EXTT0=
EXTT1=
EXTT2=
EXTT3=
EXTT4=
EXTT5=
PLAYORDER=
